<svg width="32" height="33" viewBox="0 0 32 33" fill="none" xmlns="http://www.w3.org/2000/svg">
<path d="M13.3115 1.5406C10.8586 2.95401 8.58518 4.25525 2.39308 7.80748L0.0373919 9.15359L0.0149568 16.3478L0 23.542L0.613227 23.9084C0.957233 24.1104 2.05656 24.746 3.06614 25.3219C4.07572 25.9052 6.76794 27.4532 9.04884 28.7619C11.3298 30.0781 13.8275 31.514 14.5978 31.9552L16.0037 32.7554L16.5796 32.4263C17.3274 32.0075 23.4447 28.4852 24.3795 27.9468C26.0023 27.0045 30.8184 24.245 31.3868 23.9309L32 23.5869V16.3702V9.15359L30.8633 8.51045C29.5546 7.77009 23.3101 4.19543 18.9801 1.70512C17.3424 0.762848 15.9963 -0.00742722 15.9888 5.34058e-05C15.9738 5.34058e-05 14.7698 0.695541 13.3115 1.5406ZM18.1725 2.22113C19.3017 2.87175 21.0516 3.88133 22.0612 4.45717C23.0708 5.033 25.2096 6.26694 26.81 7.18678C28.4179 8.1141 30.0556 9.04889 30.452 9.27325L31.1774 9.67708L31.1624 16.3702L31.1475 23.0634L28.7544 24.4319C27.4382 25.1872 25.7032 26.1819 24.903 26.6455C20.4309 29.2331 16.1832 31.656 16.071 31.6785C15.9364 31.7159 15.7719 31.6261 13.5359 30.3399C12.8553 29.951 11.3971 29.1059 10.2828 28.4703C8.31596 27.341 3.55971 24.6114 1.75742 23.5719L0.860014 23.0559V16.3702V9.68456L2.24351 8.88437C4.14302 7.79253 8.57771 5.2424 12.5637 2.95401C14.3959 1.90704 15.9439 1.03955 16.0037 1.03955C16.071 1.03955 17.0432 1.57051 18.1725 2.22113Z" fill="#0533FA"/>
<path d="M19.1595 5.9005C18.8754 6.0725 18.9202 5.98276 17.9705 8.44315C16.4225 12.4441 16.0037 13.5359 16.0037 13.5658C16.0037 13.5883 16.1308 13.6032 16.2953 13.6032H16.5795L16.8113 13.0199C16.931 12.7058 17.5517 11.1129 18.1724 9.49012C18.8006 7.86731 19.354 6.49129 19.4063 6.43146C19.4587 6.37912 19.5933 6.32677 19.7055 6.32677C19.9298 6.32677 20.042 6.4539 20.042 6.69321C20.042 6.78295 19.7354 7.64296 19.3615 8.6002C18.9875 9.56491 18.5912 10.6044 18.4715 10.911C18.3519 11.2176 18.0901 11.9056 17.8807 12.4441C17.6713 12.975 17.4993 13.4611 17.4993 13.5135C17.4993 13.5808 17.5891 13.6032 17.7835 13.5883L18.0602 13.5658L19.3465 10.238C20.0569 8.40576 20.6403 6.81286 20.6403 6.70069C20.6477 5.9678 19.8027 5.51162 19.1595 5.9005Z" fill="#0533FA"/>
<path d="M10.365 9.6023C10.2155 9.707 9.28813 10.4174 8.31594 11.1877C7.34375 11.958 6.25939 12.803 5.92286 13.0723L5.29468 13.5658L5.67608 13.5883C5.88547 13.6032 6.13226 13.5733 6.222 13.521C6.31174 13.4686 7.33628 12.6834 8.5029 11.7636C9.66205 10.8512 10.6791 10.0585 10.7614 10.0211C10.9409 9.92387 11.2475 10.0211 11.3148 10.1931C11.4045 10.4249 11.24 10.6194 10.2828 11.3672C8.93665 12.4142 7.6055 13.4686 7.52324 13.5434C7.47837 13.5733 7.65037 13.6032 7.90463 13.6032H8.35334L9.84153 12.4366C11.6962 10.9858 11.8906 10.7988 11.8906 10.3875C11.8906 10.2155 11.8383 9.9837 11.7784 9.86404C11.5391 9.40038 10.8511 9.27325 10.365 9.6023Z" fill="#0533FA"/>
<path d="M20.4758 9.57987C20.3711 9.67709 20.244 9.82666 20.1991 9.9164C20.0645 10.1856 20.1019 10.6418 20.2739 10.8662C20.3561 10.9709 21.1488 11.629 22.0388 12.3319L23.6466 13.6032H24.0505C24.2748 13.6032 24.4543 13.5733 24.4543 13.5434C24.4543 13.506 24.3421 13.4013 24.215 13.3041C23.9532 13.1246 22.7642 12.1898 21.5003 11.1877C21.089 10.8587 20.73 10.5371 20.7076 10.4698C20.6403 10.2978 20.76 10.0361 20.932 9.97623C21.0142 9.95379 21.1713 9.98371 21.2909 10.051C21.4031 10.1108 22.48 10.9409 23.6691 11.8832L25.8378 13.6032H26.2865C26.8025 13.6032 26.8399 13.6631 25.8004 12.8479C25.4115 12.5338 24.2823 11.6514 23.3026 10.8736C21.5153 9.4677 21.5078 9.46022 21.0965 9.43031C20.745 9.40787 20.6478 9.43031 20.4758 9.57987Z" fill="#0533FA"/>
<path d="M2.69238 15.3756C2.69238 15.413 2.87934 15.7719 3.10369 16.1758C3.45518 16.8114 3.515 16.976 3.515 17.32V17.7163H3.81414H4.11328V17.3574C4.11328 17.0732 4.19554 16.8413 4.52459 16.2057C4.74894 15.7719 4.9359 15.3905 4.9359 15.3606C4.9359 15.3382 4.80876 15.3232 4.6592 15.3382C4.41241 15.3606 4.36754 15.398 4.12823 15.8243C3.99362 16.086 3.85153 16.2954 3.8291 16.2954C3.79918 16.2954 3.65709 16.0786 3.515 15.8093C3.26822 15.3457 3.2383 15.3232 2.97656 15.3232C2.81952 15.3232 2.69238 15.3457 2.69238 15.3756Z" fill="#0533FA"/>
<path d="M5.7583 15.4878C4.75619 15.9963 4.89828 17.3275 5.98265 17.6491C6.47622 17.7986 6.93988 17.679 7.30632 17.3051C7.61294 16.9984 7.62789 16.9685 7.62789 16.5273C7.62789 16.1085 7.60546 16.0487 7.35867 15.772C6.9324 15.3008 6.33413 15.1961 5.7583 15.4878ZM6.84266 16.0337C7.25397 16.4376 6.96232 17.1929 6.40144 17.1929C6.00508 17.1929 5.72091 16.9162 5.72091 16.5198C5.72091 16.2656 5.76578 16.1683 5.9303 16.0262C6.21448 15.7869 6.60336 15.7869 6.84266 16.0337Z" fill="#0533FA"/>
<path d="M7.927 16.0711C7.927 17.0358 8.04666 17.3499 8.4804 17.5668C9.04128 17.836 9.63955 17.7014 9.97608 17.2452C10.1107 17.0583 10.1331 16.9236 10.1331 16.1982V15.3607L9.85642 15.3382L9.57225 15.3158V16.0262C9.57225 16.4151 9.54233 16.819 9.49746 16.9236C9.37033 17.2751 8.77206 17.2751 8.61501 16.9311C8.56266 16.8264 8.52527 16.4226 8.52527 16.0337V15.3233H8.22614H7.927V16.0711Z" fill="#0533FA"/>
<path d="M10.6194 16.5198V17.7163H10.8811H11.1354L11.1578 16.9834L11.1803 16.258L11.7337 16.9834C12.2347 17.6565 12.302 17.7163 12.5339 17.7163H12.7881V16.5198V15.3232H12.5264H12.2721L12.2497 16.0486L12.2272 16.7815L11.6738 16.0486C11.1728 15.3831 11.1055 15.3232 10.8736 15.3232H10.6194V16.5198Z" fill="#0533FA"/>
<path d="M13.835 15.4878C12.8703 15.9814 12.9451 17.2377 13.9696 17.6416C14.2613 17.7537 14.8446 17.7014 15.1737 17.5294C15.3905 17.4172 15.4055 17.3873 15.4055 16.9685V16.5198H15.1437C14.8895 16.5198 14.882 16.5273 14.882 16.8115C14.882 17.1181 14.7997 17.1929 14.4632 17.1929C14.2389 17.1929 13.9846 17.0657 13.8575 16.9012C13.7378 16.7442 13.7378 16.2955 13.8575 16.1384C14.0818 15.8468 14.6352 15.7495 14.9269 15.9589C15.069 16.0561 15.0989 16.0487 15.2634 15.8767C15.4429 15.6897 15.4429 15.6822 15.2933 15.6C14.7698 15.2859 14.3062 15.256 13.835 15.4878Z" fill="#0533FA"/>
<path d="M17.3498 15.3905C16.8113 15.5551 16.5122 15.9589 16.5122 16.5198C16.5122 17.5443 17.7013 18.0678 18.5463 17.4172L18.7333 17.2751L18.5688 17.1106C18.4117 16.9535 18.3968 16.9535 18.15 17.0732C17.8434 17.2153 17.6938 17.2227 17.4769 17.1031C17.2227 16.9685 17.1329 16.8114 17.1254 16.4973C17.1254 15.9439 17.6714 15.6747 18.1874 15.9738C18.4042 16.1085 18.4042 16.1085 18.5463 15.9215C18.7183 15.6971 18.6884 15.6448 18.2921 15.4653C17.9705 15.3232 17.6639 15.2933 17.3498 15.3905Z" fill="#0533FA"/>
<path d="M19.6906 15.4055C19.3017 15.5177 18.9353 15.9365 18.8829 16.3254C18.7483 17.2003 19.6233 17.8958 20.5282 17.649C21.0442 17.5069 21.4629 16.9909 21.4629 16.5048C21.4555 16.1908 21.1862 15.7271 20.917 15.5551C20.6104 15.3681 20.0346 15.2933 19.6906 15.4055ZM20.5057 15.929C20.588 15.9739 20.7002 16.1234 20.76 16.2655C21.0442 16.9386 20.2515 17.492 19.6906 17.0134C19.526 16.8713 19.4812 16.7741 19.4812 16.5198C19.4812 16.2655 19.526 16.1683 19.6906 16.0262C19.9149 15.8318 20.2515 15.7944 20.5057 15.929Z" fill="#0533FA"/>
<path d="M21.762 16.5198V17.7163H22.4201C23.1529 17.7163 23.5717 17.5742 23.841 17.2302C24.3196 16.6245 24.013 15.6298 23.2726 15.413C23.1081 15.3606 22.7042 15.3232 22.3677 15.3232H21.762V16.5198ZM23.0632 15.8766C23.3623 16.0038 23.5194 16.3328 23.4521 16.7067C23.3848 17.0358 23.1305 17.2153 22.7117 17.2227L22.3976 17.2302L22.3752 16.602C22.3602 16.258 22.3677 15.929 22.3901 15.8692C22.4425 15.742 22.7491 15.742 23.0632 15.8766Z" fill="#0533FA"/>
<path d="M24.4543 16.5198V17.7163H25.3891H26.3239V17.492V17.2676H25.6883H25.0526V17.0059V16.7441H25.6135H26.1744V16.5198V16.2954H25.6135H25.0526V16.0337V15.7719H25.6434C26.2118 15.7719 26.2342 15.7645 26.2641 15.585C26.2865 15.4878 26.2865 15.3831 26.2641 15.3606C26.2417 15.3382 25.8229 15.3232 25.3368 15.3232H24.4543V16.5198Z" fill="#0533FA"/>
<path d="M26.6978 16.5123V17.7163H26.9969H27.296V17.3798C27.296 17.0433 27.296 17.0433 27.5578 17.0433C27.7971 17.0433 27.8345 17.0732 27.984 17.3798C28.1411 17.7014 28.1635 17.7163 28.4701 17.7163C28.6496 17.7163 28.7917 17.6939 28.7917 17.6565C28.7917 17.6266 28.6945 17.4546 28.5673 17.2751L28.3505 16.9386L28.53 16.774C28.7543 16.5721 28.8366 16.1384 28.7169 15.8467C28.5599 15.4653 28.3131 15.3681 27.468 15.3382L26.6978 15.3083V16.5123ZM27.999 15.8467C28.1411 15.8991 28.1934 15.9739 28.1934 16.1234C28.1934 16.4599 28.0887 16.5497 27.6924 16.5497L27.3334 16.5572L27.311 16.2655C27.296 16.1085 27.3035 15.9365 27.3259 15.8766C27.3708 15.757 27.7223 15.742 27.999 15.8467Z" fill="#0533FA"/>
<path d="M5.35448 19.1223C5.31709 19.1896 9.79664 22.7942 10.4173 23.2055C10.8885 23.5196 11.6064 23.3102 11.8158 22.8017C11.9355 22.5175 11.8682 22.0164 11.6887 21.8145C11.6139 21.7322 10.8511 21.1041 9.99108 20.4235C8.58514 19.3093 8.3907 19.1746 8.07661 19.1372C7.38112 19.0475 7.41851 19.1298 8.42062 19.9225C10.8361 21.8295 11.2175 22.1436 11.2848 22.2632C11.3895 22.4651 11.2175 22.7568 10.9857 22.7867C10.7987 22.8091 10.0659 22.2557 6.99225 19.8028C6.29676 19.2419 6.12475 19.1372 5.89292 19.1372C5.74336 19.1372 5.57135 19.1148 5.51153 19.0924C5.4517 19.0699 5.37692 19.0849 5.35448 19.1223Z" fill="#0533FA"/>
<path d="M13.7677 19.3018C13.2891 20.5432 11.6663 24.7236 11.4643 25.2471C11.1503 26.0697 11.1652 26.3539 11.5541 26.7428C11.771 26.9596 11.8532 26.9895 12.1748 26.9895C12.6684 26.9895 12.9301 26.7727 13.1919 26.152C13.5359 25.3144 15.8542 19.2718 15.8542 19.2045C15.8542 19.1672 15.727 19.1372 15.57 19.1372H15.2783L14.9717 19.9374C14.7997 20.3861 14.4632 21.2686 14.2239 21.9042C13.9771 22.5399 13.5583 23.6168 13.2966 24.2973C13.0273 24.9779 12.7506 25.6958 12.6758 25.8902C12.6011 26.0921 12.459 26.309 12.3618 26.3688C12.2047 26.4735 12.1748 26.4735 12.0028 26.3614C11.6962 26.1594 11.599 26.496 13.4611 21.6799C13.9621 20.3861 14.3884 19.2793 14.4108 19.227C14.4407 19.1672 14.3585 19.1372 14.1416 19.1372C13.8873 19.1372 13.82 19.1672 13.7677 19.3018Z" fill="#0533FA"/>
<path d="M22.6521 19.93C22.0987 20.3637 21.3957 20.9171 21.0817 21.1564C20.3114 21.7547 20.1169 21.994 20.1169 22.3604C20.1169 22.9512 20.4983 23.3476 21.0592 23.3476C21.2387 23.3476 21.4631 23.2878 21.5902 23.2055C21.7098 23.1307 22.9139 22.1884 24.2674 21.119L26.7278 19.1746L26.3016 19.1522C25.8753 19.1298 25.8678 19.1298 25.2546 19.6159C21.65 22.4577 21.1864 22.8017 21.0368 22.8017C20.805 22.8017 20.603 22.4876 20.7077 22.2856C20.7526 22.2034 21.5229 21.5602 22.4203 20.8498C23.3102 20.1468 24.1627 19.4663 24.3048 19.3541L24.5666 19.1373H24.1104H23.6542L22.6521 19.93Z" fill="#0533FA"/>
</svg>
